<svg width="32" height="32" viewBox="0 0 32 32" fill="none" xmlns="http://www.w3.org/2000/svg">
<path fill-rule="evenodd" clip-rule="evenodd" d="M11.2783 25.0973L6.51517 27.6979C6.23566 27.8505 5.98446 28.038 5.75073 28.2424C8.52776 30.5862 12.1126 32.0002 16.0293 32.0002C19.9172 32.0002 23.4791 30.6073 26.2483 28.2955C25.9929 28.0796 25.7158 27.8855 25.4086 27.7323L20.3081 25.1799C19.6491 24.8501 19.2329 24.1759 19.2329 23.4385V21.4354C19.3762 21.272 19.5401 21.0621 19.7154 20.8143C20.4105 19.8315 20.9364 18.7503 21.3009 17.6161C21.9551 17.4141 22.437 16.8093 22.437 16.0906V13.9524C22.437 13.4821 22.228 13.0618 21.9033 12.7676V9.67667C21.9033 9.67667 22.5376 4.8667 16.03 4.8667C9.52231 4.8667 10.1566 9.67667 10.1566 9.67667V12.7676C9.83134 13.0618 9.62291 13.4821 9.62291 13.9524V16.0906C9.62291 16.6538 9.91868 17.1494 10.3614 17.4358C10.8952 19.7615 12.2927 21.4354 12.2927 21.4354V23.3891C12.2921 24.1006 11.903 24.756 11.2783 25.0973Z" fill="#68C98E"/>
<path fill-rule="evenodd" clip-rule="evenodd" d="M16.274 0.00238466C7.43871 -0.14869 0.153333 6.89745 0.00238425 15.7402C-0.0833545 20.754 2.14948 25.2603 5.70461 28.257C5.93708 28.054 6.18644 27.8679 6.46358 27.7168L11.2378 25.1104C11.8639 24.7684 12.254 24.1115 12.254 23.3972V21.4393C12.254 21.4393 10.8526 19.7618 10.3182 17.431C9.87502 17.144 9.57795 16.6478 9.57795 16.0828V13.94C9.57795 13.4686 9.78747 13.0474 10.1129 12.7525V9.65487C10.1129 9.65487 9.47712 4.83437 15.9999 4.83437C22.5227 4.83437 21.8869 9.65487 21.8869 9.65487V12.7525C22.2129 13.0474 22.4219 13.4686 22.4219 13.94V16.0828C22.4219 16.8031 21.9388 17.4092 21.2831 17.6117C20.9178 18.7484 20.3907 19.8319 19.6939 20.8169C19.5182 21.0653 19.354 21.2756 19.2103 21.4393V23.4468C19.2103 24.1859 19.6275 24.8621 20.2881 25.192L25.4004 27.75C25.7071 27.9035 25.9842 28.0975 26.2396 28.3132C29.6873 25.4356 31.9147 21.1329 31.9974 16.2877C32.1496 7.44494 25.1099 0.15346 16.274 0.00238466Z" fill="#808080"/>
</svg>
