<svg width="14" height="14" viewBox="0 0 14 14" fill="none" xmlns="http://www.w3.org/2000/svg">
    <path fill-rule="evenodd" clip-rule="evenodd" d="M0 6.97674C0 3.12367 3.12363 0 6.9767 0C10.8297 0 13.9535 3.12367 13.9535 6.97674C13.9535 10.8297 10.8296 13.9536 6.9766 13.9536C3.12358 13.9536 0 10.8297 0 6.97674ZM7.67488 7.74423H9.92C10.3135 7.74423 10.6328 7.42526 10.6327 7.03149C10.6328 6.63763 10.3135 6.31833 9.91977 6.31856L7.67488 6.31833L7.67474 4.23521C7.67488 3.84149 7.35567 3.52228 6.96181 3.52228C6.56819 3.52228 6.24898 3.84144 6.24898 4.23521V6.31851L4.06367 6.31837C3.66995 6.31847 3.35074 6.63767 3.35074 7.0313C3.35098 7.42502 3.66991 7.74409 4.06367 7.74423H6.24902V10.0914C6.24902 10.4853 6.56809 10.8043 6.96195 10.8043C7.35567 10.8043 7.67474 10.4853 7.67488 10.0916V7.74423Z" fill="white"/>
</svg>
