<svg width="16" height="4" viewBox="0 0 16 4" fill="none" xmlns="http://www.w3.org/2000/svg">
    <path fill-rule="evenodd" clip-rule="evenodd" d="M5.68928 1.95549C5.68928 3.03548 6.64437 3.91099 7.82254 3.91099C9.00071 3.91099 9.95581 3.03548 9.95581 1.95549C9.95581 0.875504 9.00071 0 7.82254 0C6.64437 0 5.68928 0.875504 5.68928 1.95549Z" fill="#898989"/>
    <path fill-rule="evenodd" clip-rule="evenodd" d="M6.93032e-05 1.95549C6.93032e-05 3.03548 0.955165 3.91099 2.13334 3.91099C3.31151 3.91099 4.2666 3.03548 4.2666 1.95549C4.2666 0.875504 3.31151 0 2.13334 0C0.955165 0 6.93032e-05 0.875504 6.93032e-05 1.95549Z" fill="#898989"/>
    <path fill-rule="evenodd" clip-rule="evenodd" d="M11.7335 1.95549C11.7335 3.03548 12.6886 3.91099 13.8667 3.91099C15.0449 3.91099 16 3.03548 16 1.95549C16 0.875504 15.0449 0 13.8667 0C12.6886 0 11.7335 0.875504 11.7335 1.95549Z" fill="#898989"/>
</svg>
